<?xml version="1.0" encoding="iso-8859-1"?>
<!-- Generator: Adobe Illustrator 19.0.0, SVG Export Plug-In . SVG Version: 6.00 Build 0)  -->
<svg version="1.1" id="Capa_1" xmlns="http://www.w3.org/2000/svg" xmlns:xlink="http://www.w3.org/1999/xlink" x="0px" y="0px"
	 viewBox="0 0 512 512" style="enable-background:new 0 0 512 512;" xml:space="preserve">
<g>
	<g>
		<g>
			<path d="M256,128c-70.659,0.08-127.92,57.341-128,128c0,70.692,57.308,128,128,128s128-57.308,128-128S326.692,128,256,128z
				 M256,366.933c-61.267,0-110.933-49.667-110.933-110.933c0.068-61.239,49.695-110.865,110.933-110.933
				c61.267,0,110.933,49.667,110.933,110.933S317.267,366.933,256,366.933z"/>
			<path d="M256,110.933c18.851,0,34.133-15.282,34.133-34.133V34.133C290.133,15.282,274.851,0,256,0
				c-18.851,0-34.133,15.282-34.133,34.133V76.8C221.867,95.651,237.149,110.933,256,110.933z M238.933,34.133
				c0-9.426,7.641-17.067,17.067-17.067s17.067,7.641,17.067,17.067V76.8c0,9.426-7.641,17.067-17.067,17.067
				s-17.067-7.641-17.067-17.067V34.133z"/>
			<path d="M256,401.067c-18.851,0-34.133,15.282-34.133,34.133v42.667C221.867,496.718,237.149,512,256,512
				c18.851,0,34.133-15.282,34.133-34.133V435.2C290.133,416.349,274.851,401.067,256,401.067z M273.067,477.867
				c0,9.426-7.641,17.067-17.067,17.067s-17.067-7.641-17.067-17.067V435.2c0-9.426,7.641-17.067,17.067-17.067
				s17.067,7.641,17.067,17.067V477.867z"/>
			<path d="M99.9,148.171c8.623,8.623,21.191,11.99,32.97,8.834c11.779-3.156,20.979-12.357,24.136-24.136
				c3.156-11.779-0.211-24.347-8.834-32.97L118,69.733c-13.503-12.9-34.764-12.9-48.267,0c-6.403,6.399-10,15.081-10,24.133
				s3.597,17.734,10,24.133L99.9,148.171z M77.383,89.45c1.578-5.889,6.178-10.489,12.067-12.067
				c5.889-1.578,12.172,0.106,16.483,4.417l30.171,30.167c3.201,3.201,5,7.542,5,12.069c0,4.527-1.799,8.868-5,12.069
				c-6.753,6.45-17.384,6.45-24.138,0L81.8,105.933C77.489,101.622,75.805,95.339,77.383,89.45z"/>
			<path d="M110.933,256c0-18.851-15.282-34.133-34.133-34.133H34.133C15.291,221.888,0.022,237.158,0,256
				c0.022,18.842,15.291,34.112,34.133,34.133H76.8C95.651,290.133,110.933,274.851,110.933,256z M17.067,256
				c0-9.426,7.641-17.067,17.067-17.067H76.8c9.422,0.009,17.057,7.645,17.067,17.067c-0.009,9.422-7.645,17.057-17.067,17.067
				H34.133C24.708,273.067,17.067,265.426,17.067,256z"/>
			<path d="M99.9,363.829L69.733,394c-13.328,13.328-13.328,34.938,0,48.267c13.328,13.328,34.938,13.328,48.267,0l30.171-30.166
				c6.403-6.4,10-15.082,10-24.135c0-9.053-3.597-17.735-10-24.135C134.666,350.929,113.405,350.929,99.9,363.829z M136.104,400.033
				L105.933,430.2c-6.752,6.45-17.382,6.45-24.133,0c-3.201-3.2-5-7.54-5-12.067s1.799-8.867,5-12.067l30.167-30.171
				c3.201-3.201,7.542-5,12.069-5s8.868,1.799,12.069,5c3.201,3.201,5,7.542,5,12.069
				C141.104,392.491,139.305,396.833,136.104,400.033z"/>
			<path d="M412.1,363.829c-13.505-12.9-34.766-12.9-48.271,0c-6.424,6.385-10.025,15.076-10,24.133
				c-0.025,9.059,3.576,17.751,10,24.138L394,442.267c8.622,8.622,21.189,11.989,32.967,8.833s20.977-12.355,24.133-24.133
				c3.156-11.778-0.211-24.345-8.833-32.967L412.1,363.829z M430.2,430.2c-6.752,6.45-17.382,6.45-24.133,0l-30.171-30.167
				c-3.201-3.201-5-7.542-5-12.069c0-4.527,1.799-8.868,5-12.069c3.201-3.201,7.542-5,12.069-5c4.527,0,8.868,1.799,12.069,5
				l30.167,30.171c3.201,3.2,5,7.54,5,12.067S433.401,427,430.2,430.2z"/>
			<path d="M477.867,221.867H435.2c-18.851,0-34.133,15.282-34.133,34.133c0,18.851,15.282,34.133,34.133,34.133h42.667
				C496.718,290.133,512,274.851,512,256C512,237.149,496.718,221.867,477.867,221.867z M477.867,273.067H435.2
				c-9.426,0-17.067-7.641-17.067-17.067s7.641-17.067,17.067-17.067h42.667c9.426,0,17.067,7.641,17.067,17.067
				S487.292,273.067,477.867,273.067z"/>
			<path d="M412.1,148.171L442.267,118c6.403-6.399,10-15.081,10-24.133c0-9.052-3.597-17.734-10-24.133
				c-13.503-12.9-34.764-12.9-48.267,0L363.829,99.9c-13.33,13.33-13.33,34.941,0,48.271
				C377.159,161.501,398.771,161.501,412.1,148.171z M375.896,111.967L406.067,81.8c4.311-4.311,10.594-5.995,16.483-4.417
				c5.889,1.578,10.489,6.178,12.067,12.067c1.578,5.889-0.106,12.172-4.417,16.483l-30.167,30.171
				c-6.753,6.45-17.384,6.45-24.138,0c-3.201-3.201-5-7.542-5-12.069C370.896,119.509,372.694,115.167,375.896,111.967z"/>
		</g>
	</g>
</g>
<g>
</g>
<g>
</g>
<g>
</g>
<g>
</g>
<g>
</g>
<g>
</g>
<g>
</g>
<g>
</g>
<g>
</g>
<g>
</g>
<g>
</g>
<g>
</g>
<g>
</g>
<g>
</g>
<g>
</g>
</svg>
