<svg id="Capa_1" enable-background="new 0 0 512.001 512.001" height="512" viewBox="0 0 512.001 512.001" width="512" xmlns="http://www.w3.org/2000/svg"><g><path d="m165.344 109.138 39.075-26.286c6.975-4.618 6.928-15.372 0-19.956l-39.076-26.286c-7.843-5.378-18.803.605-18.728 9.979v52.57c-.09 9.347 10.952 15.318 18.729 9.979zm-3.729-56.958 30.764 20.694-30.764 20.694zm3.728 350.682c-7.843-5.38-18.803.606-18.728 9.979v52.57c-.09 9.352 10.955 15.316 18.729 9.979l39.075-26.285c6.977-4.62 6.926-15.374 0-19.956zm-3.728 56.959v-41.389l30.764 20.694zm159.038-444.82h183.849c4.142 0 7.5-3.357 7.5-7.5s-3.358-7.5-7.5-7.5h-183.849c-4.142 0-7.5 3.357-7.5 7.5s3.358 7.5 7.5 7.5zm-294.552 381.971c-11.837 0-22.083 8.421-24.361 20.023-.798 4.064 1.85 8.007 5.914 8.805 4.066.795 8.007-1.85 8.805-5.914.901-4.586 4.956-7.914 9.643-7.914 5.419 0 9.828 4.408 9.828 9.827s-4.409 9.827-9.828 9.827c-4.142 0-7.5 3.357-7.5 7.5s3.358 7.5 7.5 7.5c5.419 0 9.828 4.408 9.828 9.827s-4.409 9.828-9.828 9.828c-4.876 0-9.06-3.632-9.731-8.444-.651-4.665-1.935-8.884-7.596-8.884-6.182 0-7.978 5.815-7.261 10.953 1.701 12.186 12.271 21.375 24.588 21.375 13.69 0 24.828-11.138 24.828-24.828 0-6.736-2.7-12.85-7.07-17.327 4.37-4.477 7.07-10.592 7.07-17.327-.001-13.689-11.139-24.827-24.829-24.827zm178.318-150.95-39.076-26.286c-7.843-5.378-18.803.604-18.728 9.979v52.57c-.13 9.357 10.999 15.269 18.729 9.979l39.075-26.285c6.976-4.619 6.927-15.374 0-19.957zm-42.804 30.673v-41.389l30.764 20.694zm89.972 89.558h-146.827c-16.409 0-29.759 13.35-29.759 29.759v86.23c0 16.409 13.35 29.759 29.759 29.759h146.827c16.409 0 29.758-13.35 29.758-29.759v-27.406c0-4.143-3.358-7.5-7.5-7.5s-7.5 3.357-7.5 7.5v27.406c0 8.138-6.621 14.759-14.758 14.759h-146.827c-8.138 0-14.759-6.621-14.759-14.759v-86.23c0-8.138 6.621-14.759 14.759-14.759h146.827c8.138 0 14.758 6.621 14.758 14.759v23.824c0 4.143 3.358 7.5 7.5 7.5s7.5-3.357 7.5-7.5v-23.824c0-16.41-13.349-29.759-29.758-29.759zm-206.884-83.388c-.032 0-.064 0-.096.001-6.979.087-14.389.145-20.463.154 3.775-5.042 9.076-12.274 16.297-22.592 4.315-6.165 7.128-11.988 8.361-17.309 3.577-15.436-10.989-29.14-24.299-29.14-11.837 0-22.083 8.421-24.361 20.023-.798 4.064 1.85 8.007 5.914 8.805 4.066.797 8.007-1.85 8.805-5.914.901-4.586 4.956-7.914 9.643-7.914 6.023 0 11.036 5.413 9.605 11.088-.849 3.369-2.852 7.323-5.957 11.759-10.727 15.327-17.129 23.71-20.568 28.213-5.423 7.1-8.149 14.545.241 17.336 1.016.338 27.234.611 36.971.488 4.142-.052 7.457-3.451 7.405-7.594-.052-4.108-3.4-7.404-7.498-7.404zm-33.076-236.349h6.974v60.217c0 4.143 3.358 7.5 7.5 7.5s7.5-3.357 7.5-7.5v-67.717c0-4.143-3.358-7.5-7.5-7.5h-14.474c-4.142 0-7.5 3.357-7.5 7.5s3.358 7.5 7.5 7.5zm492.874 319.737h-183.848c-4.142 0-7.5 3.357-7.5 7.5s3.358 7.5 7.5 7.5h183.849c4.142 0 7.5-3.357 7.5-7.5s-3.359-7.5-7.501-7.5zm-183.848-220.504h123.849c4.142 0 7.5-3.357 7.5-7.5s-3.358-7.5-7.5-7.5h-123.849c-4.142 0-7.5 3.357-7.5 7.5s3.358 7.5 7.5 7.5zm183.848 37.378h-183.848c-4.142 0-7.5 3.357-7.5 7.5s3.358 7.5 7.5 7.5h183.849c4.142 0 7.5-3.357 7.5-7.5s-3.359-7.5-7.501-7.5zm0 43.583h-183.848c-4.142 0-7.5 3.357-7.5 7.5s3.358 7.5 7.5 7.5h183.849c4.142 0 7.5-3.357 7.5-7.5s-3.359-7.5-7.501-7.5zm0-183.126h-183.848c-4.142 0-7.5 3.357-7.5 7.5s3.358 7.5 7.5 7.5h183.849c4.142 0 7.5-3.357 7.5-7.5s-3.359-7.5-7.501-7.5zm0 43.582h-183.848c-4.142 0-7.5 3.357-7.5 7.5s3.358 7.5 7.5 7.5h183.849c4.142 0 7.5-3.357 7.5-7.5s-3.359-7.5-7.501-7.5zm0 183.126h-183.848c-4.142 0-7.5 3.357-7.5 7.5s3.358 7.5 7.5 7.5h183.849c4.142 0 7.5-3.357 7.5-7.5s-3.359-7.5-7.501-7.5zm-60 226.709h-123.848c-4.142 0-7.5 3.357-7.5 7.5s3.358 7.5 7.5 7.5h123.849c4.142 0 7.5-3.357 7.5-7.5s-3.359-7.5-7.501-7.5zm-192.914-313.874h-146.827c-16.409 0-29.759 13.35-29.759 29.759v86.23c0 16.409 13.35 29.759 29.759 29.759h146.827c16.409 0 29.758-13.35 29.758-29.759v-86.23c0-16.41-13.349-29.759-29.758-29.759zm14.758 115.989c0 8.138-6.621 14.759-14.758 14.759h-146.827c-8.138 0-14.759-6.621-14.759-14.759v-86.23c0-8.138 6.621-14.759 14.759-14.759h146.827c8.138 0 14.758 6.621 14.758 14.759zm-14.758-299.115h-85.551c-4.142 0-7.5 3.357-7.5 7.5s3.358 7.5 7.5 7.5h85.551c8.138 0 14.758 6.621 14.758 14.759v86.23c0 8.138-6.621 14.759-14.758 14.759h-146.827c-8.138 0-14.759-6.621-14.759-14.759v-86.23c0-8.138 6.621-14.759 14.759-14.759h26.276c4.142 0 7.5-3.357 7.5-7.5s-3.358-7.5-7.5-7.5h-26.276c-16.409 0-29.759 13.35-29.759 29.759v86.23c0 16.409 13.35 29.759 29.759 29.759h146.827c16.409 0 29.758-13.35 29.758-29.759v-86.23c0-16.41-13.349-29.759-29.758-29.759zm252.914 409.835h-183.848c-4.142 0-7.5 3.357-7.5 7.5s3.358 7.5 7.5 7.5h183.849c4.142 0 7.5-3.357 7.5-7.5s-3.359-7.5-7.501-7.5zm0 43.582h-183.848c-4.142 0-7.5 3.357-7.5 7.5s3.358 7.5 7.5 7.5h183.849c4.142 0 7.5-3.357 7.5-7.5s-3.359-7.5-7.501-7.5zm-183.848-124.543h123.849c4.142 0 7.5-3.357 7.5-7.5s-3.358-7.5-7.5-7.5h-123.849c-4.142 0-7.5 3.357-7.5 7.5s3.358 7.5 7.5 7.5z"/></g></svg>