<svg id="bold" enable-background="new 0 0 24 24" height="512" viewBox="0 0 24 24" width="512" xmlns="http://www.w3.org/2000/svg"><path d="m23.25 15c-.414 0-.75-.336-.75-.75 0-2.895-2.355-5.25-5.25-5.25h-7.25v3.25c0 .66-.794.994-1.268.542l-5.5-5.25c-.148-.141-.232-.337-.232-.542s.084-.401.232-.542l5.5-5.25c.476-.454 1.268-.116 1.268.542v3.25h6.25c4.273 0 7.75 3.477 7.75 7.75v1.5c0 .414-.336.75-.75.75z"/><path d="m14 22.25v-3.25h-6.25c-4.273 0-7.75-3.477-7.75-7.75v-1.5c0-.414.336-.75.75-.75s.75.336.75.75c0 2.895 2.355 5.25 5.25 5.25h7.25v-3.25c0-.657.791-.998 1.268-.542l5.5 5.25c.148.141.232.337.232.542s-.084.401-.232.542l-5.5 5.25c-.477.454-1.268.116-1.268-.542z"/></svg>